<?xml version="1.0" standalone="no"?>
<!DOCTYPE svg PUBLIC "-//W3C//DTD SVG 20010904//EN"
 "http://www.w3.org/TR/2001/REC-SVG-20010904/DTD/svg10.dtd">
<svg version="1.0" xmlns="http://www.w3.org/2000/svg"
 width="505.000000pt" height="417.000000pt" viewBox="0 0 505.000000 417.000000"
 preserveAspectRatio="xMidYMid meet">

<g transform="translate(0.000000,417.000000) scale(0.100000,-0.100000)"
fill="#000000" stroke="none">
<path d="M2541 3723 c-127 -195 -329 -505 -481 -740 -104 -160 -442 -679 -633
-973 -682 -1046 -770 -1184 -758 -1188 8 -3 289 130 876 413 287 139 676 325
889 427 179 84 213 98 235 90 14 -6 271 -128 571 -272 300 -144 586 -282 635
-305 50 -24 236 -113 414 -199 179 -86 331 -156 339 -156 17 0 35 -28 -342
550 -170 261 -328 504 -351 540 -23 36 -224 344 -445 685 -414 637 -652 1002
-769 1182 -36 57 -68 103 -71 103 -3 0 -52 -71 -109 -157z"/>
<path d="M2485 1258 c-224 -96 -536 -228 -1220 -516 -352 -148 -665 -281 -695
-295 l-55 -25 2135 0 2135 0 -55 25 c-30 14 -95 42 -145 63 -49 21 -380 160
-735 310 -355 150 -766 324 -915 386 -148 63 -279 114 -290 113 -11 0 -83 -28
-160 -61z"/>
</g>
</svg>
